<svg aria-hidden="true" style="position: absolute; width: 0; height: 0; overflow: hidden;" version="1.1" 
    xmlns="http://www.w3.org/2000/svg" 
    xmlns:xlink="http://www.w3.org/1999/xlink">
    <defs>
        <symbol id="icon-close" viewBox="0 0 24 24">
            <title>close</title>
            <path d="M18.984 6.422l-5.578 5.578 5.578 5.578-1.406 1.406-5.578-5.578-5.578 5.578-1.406-1.406 5.578-5.578-5.578-5.578 1.406-1.406 5.578 5.578 5.578-5.578z"></path>
        </symbol>
        <symbol id="icon-code" viewBox="0 0 24 24">
            <title>code</title>
            <path d="M14.578 16.594l4.641-4.594-4.641-4.594 1.406-1.406 6 6-6 6zM9.422 16.594l-1.406 1.406-6-6 6-6 1.406 1.406-4.641 4.594z"></path>
        </symbol>
        <symbol id="icon-dehaze" viewBox="0 0 24 24">
            <title>dehaze</title>
            <path d="M2.016 5.484h19.969v2.016h-19.969v-2.016zM2.016 10.5h19.969v2.016h-19.969v-2.016zM2.016 15.516h19.969v1.969h-19.969v-1.969z"></path>
        </symbol>
        <symbol id="icon-format_align_center" viewBox="0 0 24 24">
            <title>format_align_center</title>
            <path d="M3 3h18v2.016h-18v-2.016zM6.984 6.984h10.031v2.016h-10.031v-2.016zM3 12.984v-1.969h18v1.969h-18zM3 21v-2.016h18v2.016h-18zM6.984 15h10.031v2.016h-10.031v-2.016z"></path>
        </symbol>
        <symbol id="icon-format_align_justify" viewBox="0 0 24 24">
            <title>format_align_justify</title>
            <path d="M3 3h18v2.016h-18v-2.016zM3 9v-2.016h18v2.016h-18zM3 12.984v-1.969h18v1.969h-18zM3 17.016v-2.016h18v2.016h-18zM3 21v-2.016h18v2.016h-18z"></path>
        </symbol>
        <symbol id="icon-format_align_left" viewBox="0 0 24 24">
            <title>format_align_left</title>
            <path d="M3 3h18v2.016h-18v-2.016zM3 21v-2.016h18v2.016h-18zM3 12.984v-1.969h18v1.969h-18zM15 6.984v2.016h-12v-2.016h12zM15 15v2.016h-12v-2.016h12z"></path>
        </symbol>
        <symbol id="icon-format_align_right" viewBox="0 0 24 24">
            <title>format_align_right</title>
            <path d="M3 3h18v2.016h-18v-2.016zM9 9v-2.016h12v2.016h-12zM3 12.984v-1.969h18v1.969h-18zM9 17.016v-2.016h12v2.016h-12zM3 21v-2.016h18v2.016h-18z"></path>
        </symbol>
        <symbol id="icon-format_bold" viewBox="0 0 24 24">
            <title>format_bold</title>
            <path d="M13.5 15.516c0.844 0 1.5-0.656 1.5-1.5s-0.656-1.5-1.5-1.5h-3.516v3h3.516zM9.984 6.516v3h3c0.844 0 1.5-0.656 1.5-1.5s-0.656-1.5-1.5-1.5h-3zM15.609 10.781c1.313 0.609 2.156 1.922 2.156 3.422 0 2.109-1.594 3.797-3.703 3.797h-7.078v-14.016h6.281c2.25 0 3.984 1.781 3.984 4.031 0 1.031-0.656 2.109-1.641 2.766z"></path>
        </symbol>
        <symbol id="icon-format_color_text" viewBox="0 0 24 24">
            <title>format_color_text</title>
            <path d="M9.609 12h4.781l-2.391-6.328zM11.016 3h1.969l5.484 14.016h-2.25l-1.078-3h-6.281l-1.125 3h-2.25zM0 20.016h24v3.984h-24v-3.984z"></path>
        </symbol>
        <symbol id="icon-format_italic" viewBox="0 0 24 24">
            <title>format_italic</title>
            <path d="M9.984 3.984h8.016v3h-2.813l-3.375 8.016h2.203v3h-8.016v-3h2.813l3.375-8.016h-2.203v-3z"></path>
        </symbol>
        <symbol id="icon-format_list_bulleted" viewBox="0 0 24 24">
            <title>format_list_bulleted</title>
            <path d="M6.984 5.016h14.016v1.969h-14.016v-1.969zM6.984 12.984v-1.969h14.016v1.969h-14.016zM6.984 18.984v-1.969h14.016v1.969h-14.016zM3.984 16.5c0.844 0 1.5 0.703 1.5 1.5s-0.703 1.5-1.5 1.5-1.5-0.703-1.5-1.5 0.656-1.5 1.5-1.5zM3.984 4.5c0.844 0 1.5 0.656 1.5 1.5s-0.656 1.5-1.5 1.5-1.5-0.656-1.5-1.5 0.656-1.5 1.5-1.5zM3.984 10.5c0.844 0 1.5 0.656 1.5 1.5s-0.656 1.5-1.5 1.5-1.5-0.656-1.5-1.5 0.656-1.5 1.5-1.5z"></path>
        </symbol>
        <symbol id="icon-format_list_numbered" viewBox="0 0 24 24">
            <title>format_list_numbered</title>
            <path d="M6.984 12.984v-1.969h14.016v1.969h-14.016zM6.984 18.984v-1.969h14.016v1.969h-14.016zM6.984 5.016h14.016v1.969h-14.016v-1.969zM2.016 11.016v-1.031h3v0.938l-1.828 2.063h1.828v1.031h-3v-0.938l1.781-2.063h-1.781zM3 8.016v-3h-0.984v-1.031h1.969v4.031h-0.984zM2.016 17.016v-1.031h3v4.031h-3v-1.031h1.969v-0.469h-0.984v-1.031h0.984v-0.469h-1.969z"></path>
        </symbol>
        <symbol id="icon-format_underlined" viewBox="0 0 24 24">
            <title>format_underlined</title>
            <path d="M5.016 18.984h13.969v2.016h-13.969v-2.016zM12 17.016c-3.328 0-6-2.672-6-6v-8.016h2.484v8.016c0 1.922 1.594 3.469 3.516 3.469s3.516-1.547 3.516-3.469v-8.016h2.484v8.016c0 3.328-2.672 6-6 6z"></path>
        </symbol>
        <symbol id="icon-link" viewBox="0 0 24 24">
            <title>link</title>
            <path d="M17.016 6.984c2.766 0 4.969 2.25 4.969 5.016s-2.203 5.016-4.969 5.016h-4.031v-1.922h4.031c1.688 0 3.094-1.406 3.094-3.094s-1.406-3.094-3.094-3.094h-4.031v-1.922h4.031zM8.016 12.984v-1.969h7.969v1.969h-7.969zM3.891 12c0 1.688 1.406 3.094 3.094 3.094h4.031v1.922h-4.031c-2.766 0-4.969-2.25-4.969-5.016s2.203-5.016 4.969-5.016h4.031v1.922h-4.031c-1.688 0-3.094 1.406-3.094 3.094z"></path>
        </symbol>
        <symbol id="icon-photo_size_select_actual" viewBox="0 0 24 24">
            <title>photo_size_select_actual</title>
            <path d="M5.016 17.016h13.969l-4.5-6-3.469 4.5-2.531-3zM21 3c0.984 0 2.016 1.031 2.016 2.016v13.969c0 0.984-1.031 2.016-2.016 2.016h-18c-1.078 0-2.016-0.938-2.016-2.016v-13.969c0-0.984 1.031-2.016 2.016-2.016h18z"></path>
        </symbol>
        <symbol id="icon-text_fields" viewBox="0 0 24 24">
            <title>text_fields</title>
            <path d="M21.516 9v3h-3v6.984h-3v-6.984h-3v-3h9zM2.484 3.984h13.031v3h-5.016v12h-3v-12h-5.016v-3z"></path>
        </symbol>
        <symbol id="icon-text_format" viewBox="0 0 24 24">
            <title>text_format</title>
            <path d="M12 6l-1.875 5.016h3.75zM9.516 12.797l-0.938 2.203h-2.063l4.734-11.016h1.5l4.734 11.016h-2.063l-0.938-2.203h-4.969zM5.016 17.016h13.969v1.969h-13.969v-1.969z"></path>
        </symbol>
        <symbol id="icon-title" viewBox="0 0 24 24">
            <title>title</title>
            <path d="M5.016 3.984h13.969v3h-5.484v12h-3v-12h-5.484v-3z"></path>
        </symbol>
    </defs>
</svg>
