<svg xmlns="http://www.w3.org/2000/svg" 
    xmlns:xlink="http://www.w3.org/1999/xlink" width="120" height="90">
    <defs>
        <symbol id="icon-close-button" viewBox="0 0 24 24">
            <path style="line-height:normal;text-indent:0;text-align:start;text-decoration-line:none;text-decoration-style:solid;text-decoration-color:#000;text-transform:none;block-progression:tb;isolation:auto;mix-blend-mode:normal" d="M4.707 3.293L3.293 4.707 10.586 12l-7.293 7.293 1.414 1.414L12 13.414l7.293 7.293 1.414-1.414L13.414 12l7.293-7.293-1.414-1.414L12 10.586 4.707 3.293z" font-weight="400" font-family="sans-serif" white-space="normal" overflow="visible"/>
        </symbol>
        <symbol id="icon-export" viewBox="0 0 24 24">
            <path d="M8 2c-1.105 0-2 .895-2 2v16c0 1.105.895 2 2 2h8c1.105 0 2-.895 2-2v-7h-7v-2h7V4c0-1.105-.895-2-2-2H8zm10 9v2h2v3l4-4-4-4v3h-2z"/>
        </symbol>
        <symbol id="icon-eye" viewBox="0 0 24 24">
            <path d="M12 4C4 4 1 12 1 12s3 8 11 8 11-8 11-8-3-8-11-8zm0 3c2.76 0 5 2.24 5 5s-2.24 5-5 5-5-2.24-5-5 2.24-5 5-5zm0 2a3 3 0 0 0-3 3 3 3 0 0 0 3 3 3 3 0 0 0 3-3 3 3 0 0 0-3-3z"/>
        </symbol>
        <symbol id="icon-github" viewBox="0 0 24 24">
            <path d="M12 2C6.477 2 2 6.477 2 12s4.477 10 10 10 10-4.477 10-10S17.523 2 12 2zm0 2c4.41 0 8 3.59 8 8 0 .47-.047.93-.125 1.375-.246-.055-.61-.12-1.03-.125-.314-.004-.704.047-1.032.094.113-.348.187-.73.187-1.125 0-.962-.47-1.857-1.22-2.595.208-.77.41-2.09-.124-2.625-1.582 0-2.457 1.13-2.5 1.188-.488-.118-.992-.188-1.53-.188-.692 0-1.353.125-1.97.313l.188-.157s-.88-1.22-2.5-1.22c-.567.572-.31 2.017-.094 2.752-.766.73-1.25 1.593-1.25 2.53 0 .33.078.64.156.938-.277-.03-1.277-.125-1.687-.125-.365 0-.927.087-1.376.19C4.03 12.82 4 12.413 4 12c0-4.41 3.59-8 8-8zm-6.53 9.28c.393 0 1.593.142 1.75.158.018.054.038.105.06.156-.428-.04-1.26-.098-1.81-.03-.368.04-.837.174-1.25.28-.032-.125-.072-.246-.095-.375.438-.095 1.012-.19 1.344-.19zm13.374.22c.398.004.76.07 1 .125-.012.066-.047.12-.063.188-.253-.06-.67-.145-1.155-.157-.234-.004-.61.008-.938.03.016-.03.02-.06.032-.092.34-.047.772-.098 1.124-.094zm-12.75.28c.562.005 1.09.044 1.312.064.524.976 1.582 1.7 3.22 2-.403.222-.763.535-1.032.906-.235.02-.48.03-.72.03-.694 0-1.128-.62-1.5-1.155C7 15.09 6.54 15.03 6.282 15c-.26-.03-.35.117-.218.22.762.585 1.036 1.28 1.344 1.905.278.563.86.875 1.5.875h.125c-.018.11-.03.21-.03.313v1.093c-2.31-.933-4.066-2.906-4.72-5.343.41-.102.872-.208 1.22-.25.16-.02.363-.036.594-.032zm12.53.126c.45.012.85.098 1.095.156-.552 2.07-1.91 3.793-3.72 4.844v-.593c0-.852-.672-1.946-1.625-2.47 1.582-.288 2.613-.98 3.156-1.905.38-.028.825-.04 1.095-.032zM12.5 18c.273 0 .5.227.5.5v1.438c-.328.042-.66.062-1 .062v-1.5c0-.273.227-.5.5-.5zm-2 1c.273 0 .5.227.5.5v.438c-.336-.043-.676-.106-1-.188v-.25c0-.273.227-.5.5-.5zm4 0c.242 0 .453.176.5.406-.324.133-.656.254-1 .344v-.25c0-.273.227-.5.5-.5z"/>
        </symbol>
        <symbol id="icon-hide" viewBox="0 0 24 24">
            <path d="M4.207 2.793L2.793 4.207 5.076 6.49C2.2 8.838 1 12 1 12s3 8 11 8c2.076 0 3.806-.545 5.242-1.344l2.55 2.55 1.415-1.413-17-17zM12 4c-1.212 0-2.294.2-3.283.512l2.56 2.56C11.514 7.037 11.753 7 12 7c2.76 0 5 2.24 5 5 0 .247-.037.486-.072.723l3.43 3.43C22.203 14.102 23 12 23 12s-3-8-11-8zM7.834 9.248l1.463 1.463C9.107 11.1 9 11.538 9 12c0 1.657 1.343 3 3 3 .463 0 .9-.108 1.29-.297l1.462 1.463C13.962 16.69 13.02 17 12 17c-2.76 0-5-2.24-5-5 0-1.02.31-1.962.834-2.752z"/>
        </symbol>
        <symbol id="icon-html-2" viewBox="0 0 24 24">
            <path d="M21 5H3c-1.103 0-2 .897-2 2v11c0 1.103.897 2 2 2h18c1.103 0 2-.897 2-2V7c0-1.103-.897-2-2-2zM7 12v3H6v-2H5v2H4v-5h1v2h1v-2h1v2zm4-1h-1v4H9v-4H8v-1h3v1zm6 4h-1v-1.347l.103-2.075L14.876 15h-.76L12.9 11.578 13 13.653V15h-1v-4.977h1.457l1.044 3.6 1.042-3.6H17V15zm3 0h-2v-5h1v4h1v1z"/>
        </symbol>
        <symbol id="icon-html" viewBox="0 0 24 24">
            <path d="M12 3l-2 18h2l2-18h-2zM5.707 6.293L0 12l5.707 5.707 1.414-1.414L2.83 12 7.12 7.707 5.708 6.293zm12.586 0L16.88 7.707 21.17 12l-4.293 4.293 1.413 1.414L24 12l-5.707-5.707z"/>
        </symbol>
        <symbol id="icon-octocat" viewBox="0 0 24 24">
            <path d="M4.063 4s-.532.926-.532 2.5c0 1.047.236 1.625.408 1.906C2.734 9.66 2 11.348 2 13.53 2 19.126 5.527 21 12 21s10-1.875 10-7.47c0-2.26-.695-3.956-1.844-5.186.285-.856.614-2.473-.187-4.344-2.388 0-4.4 1.84-4.47 1.906-1.113-.246-2.29-.375-3.5-.375-1.238 0-2.457.157-3.594.44C6.81 4.38 4.886 4 4.062 4zm11.156 8c.6-.008 1.167.055 1.655.22C18.18 12.66 19 13.944 19 15.374 18.996 19.34 16.996 20 11.875 20c-3.81 0-6.906-.715-6.906-4.5 0-1.445.75-2.273 1.28-2.78 1.168-1.118 3.008-.564 5.625-.564 1.188 0 2.34-.144 3.344-.156zM8 14c-.55 0-1 .672-1 1.5S7.45 17 8 17s1-.672 1-1.5S8.55 14 8 14zm8 0c-.55 0-1 .672-1 1.5s.45 1.5 1 1.5 1-.672 1-1.5-.45-1.5-1-1.5z"/>
        </symbol>
        <symbol id="icon-squared-menu" viewBox="0 0 24 24">
            <path d="M4 3c-.552 0-1 .448-1 1v2c0 .552.448 1 1 1h2c.552 0 1-.448 1-1V4c0-.552-.448-1-1-1H4zm7 0c-.552 0-1 .448-1 1v2c0 .552.448 1 1 1h2c.552 0 1-.448 1-1V4c0-.552-.448-1-1-1h-2zm7 0c-.552 0-1 .448-1 1v2c0 .552.448 1 1 1h2c.552 0 1-.448 1-1V4c0-.552-.448-1-1-1h-2zM4 10c-.552 0-1 .448-1 1v2c0 .552.448 1 1 1h2c.552 0 1-.448 1-1v-2c0-.552-.448-1-1-1H4zm7 0c-.552 0-1 .448-1 1v2c0 .552.448 1 1 1h2c.552 0 1-.448 1-1v-2c0-.552-.448-1-1-1h-2zm7 0c-.552 0-1 .448-1 1v2c0 .552.448 1 1 1h2c.552 0 1-.448 1-1v-2c0-.552-.448-1-1-1h-2zM4 17c-.552 0-1 .448-1 1v2c0 .552.448 1 1 1h2c.552 0 1-.448 1-1v-2c0-.552-.448-1-1-1H4zm7 0c-.552 0-1 .448-1 1v2c0 .552.448 1 1 1h2c.552 0 1-.448 1-1v-2c0-.552-.448-1-1-1h-2zm7 0c-.552 0-1 .448-1 1v2c0 .552.448 1 1 1h2c.552 0 1-.448 1-1v-2c0-.552-.448-1-1-1h-2z"/>
        </symbol>
        <symbol id="icon-strikethrough" viewBox="0 0 24 24">
            <path d="M4 3v2h7v7H6v2h5v7h2v-7h5v-2h-5V5h7V3H4z"/>
        </symbol>
        <symbol id="icon-trash" viewBox="0 0 24 24">
            <path d="M10 2L9 3H4v2h16V3h-5l-1-1h-4zM5 7v13c0 1.1.9 2 2 2h10c1.1 0 2-.9 2-2V7H5zm3 2h2v11H8V9zm6 0h2v11h-2V9z"/>
        </symbol>
    </defs>
    <g>
        <use xlink:href="#icon-close-button" width="24" height="24" x="3" y="3"/>
        <use xlink:href="#icon-export" width="24" height="24" x="33" y="3"/>
        <use xlink:href="#icon-eye" width="24" height="24" x="63" y="3"/>
        <use xlink:href="#icon-github" width="24" height="24" x="93" y="3"/>
        <use xlink:href="#icon-hide" width="24" height="24" x="3" y="33"/>
        <use xlink:href="#icon-html-2" width="24" height="24" x="33" y="33"/>
        <use xlink:href="#icon-html" width="24" height="24" x="63" y="33"/>
        <use xlink:href="#icon-octocat" width="24" height="24" x="93" y="33"/>
        <use xlink:href="#icon-squared-menu" width="24" height="24" x="3" y="63"/>
        <use xlink:href="#icon-strikethrough" width="24" height="24" x="33" y="63"/>
        <use xlink:href="#icon-trash" width="24" height="24" x="63" y="63"/>
    </g>
</svg>